<?xml version="1.0" encoding="UTF-8"?>
<!DOCTYPE score-partwise PUBLIC "-//Recordare//DTD MusicXML 2.0 Partwise//EN"
  "http://www.musicxml.org/dtds/partwise.dtd">
<score-partwise version="2.0"><work><work-title>interpret interpol</work-title></work><identification><creator type="composer">nils sjöberg jr.</creator><creator type="lyricist"/><rights/><encoding><software>Noteflight version 0.4</software><encoding-date>2018-08-31</encoding-date><supports attribute="new-system" element="print" type="no" value="no"/><supports attribute="new-page" element="print" type="no" value="no"/></encoding></identification><defaults><scaling><millimeters>2.1166666679999997</millimeters><tenths>10</tenths></scaling><page-layout><page-height>1320</page-height><page-width>1020</page-width><page-margins type="both"><left-margin>59.583333333333336</left-margin><right-margin>56.66666666666667</right-margin><top-margin>96.66666666666667</top-margin><bottom-margin>80</bottom-margin></page-margins></page-layout><system-layout><system-margins><left-margin>59.583333333333336</left-margin><right-margin>26.666666666666668</right-margin></system-margins><system-distance>92.5</system-distance><top-system-distance>145.83333333333334</top-system-distance></system-layout><staff-layout><staff-distance>55</staff-distance></staff-layout></defaults><credit page="1"><credit-words font-size="24" default-x="510" default-y="1260" justify="center" valign="top">interpret interpol</credit-words></credit><credit page="1"><credit-words font-size="12" default-x="918" default-y="1210" justify="right" valign="top">nils sjöberg jr.</credit-words></credit><part-list><score-part id="P1"><part-name>Piano</part-name><part-abbreviation>Pno.</part-abbreviation><score-instrument id="P1I1"><instrument-name>Piano</instrument-name><instrument-sound>keyboard.piano</instrument-sound></score-instrument><midi-instrument id="P1I1"><midi-channel>1</midi-channel><midi-program>1</midi-program></midi-instrument></score-part></part-list><part id="P1"><measure number="1"><direction placement="above"><direction-type><metronome><beat-unit>quarter</beat-unit><per-minute>168</per-minute></metronome></direction-type><sound tempo="168"/></direction><direction placement="above"><direction-type><metronome><beat-unit>quarter</beat-unit><per-minute>168</per-minute></metronome></direction-type><sound tempo="168"/></direction><note><pitch><step>D</step><octave>4</octave></pitch><duration>288</duration><voice>1</voice><type>quarter</type><dot/><staff>1</staff></note><note><pitch><step>E</step><octave>4</octave></pitch><duration>96</duration><voice>1</voice><type>eighth</type><staff>1</staff></note><note><pitch><step>F</step><octave>4</octave></pitch><duration>96</duration><voice>1</voice><type>eighth</type><staff>1</staff><beam number="1">begin</beam></note><note><pitch><step>G</step><octave>4</octave></pitch><duration>96</duration><voice>1</voice><type>eighth</type><staff>1</staff><beam number="1">end</beam></note><backup><duration>576</duration></backup><attributes><divisions>192</divisions><key><fifths>-1</fifths><mode>minor</mode></key><time print-object="yes"><beats>3</beats><beat-type>4</beat-type></time><staves>2</staves><clef number="1"><sign>G</sign><line>2</line></clef><clef number="2"><sign>F</sign><line>4</line></clef></attributes><note><pitch><step>D</step><octave>3</octave></pitch><duration>192</duration><voice>3</voice><type>quarter</type><staff>2</staff></note><note><pitch><step>F</step><octave>3</octave></pitch><duration>192</duration><voice>3</voice><type>quarter</type><staff>2</staff></note><note><chord/><pitch><step>A</step><octave>3</octave></pitch><duration>192</duration><voice>3</voice><type>quarter</type><staff>2</staff></note><note><pitch><step>F</step><octave>3</octave></pitch><duration>192</duration><voice>3</voice><type>quarter</type><staff>2</staff></note><note><chord/><pitch><step>A</step><octave>3</octave></pitch><duration>192</duration><voice>3</voice><type>quarter</type><staff>2</staff></note></measure><measure number="2"><note><pitch><step>A</step><octave>4</octave></pitch><duration>384</duration><voice>1</voice><type>half</type><staff>1</staff></note><note><pitch><step>A</step><octave>4</octave></pitch><duration>192</duration><voice>1</voice><type>quarter</type><staff>1</staff></note><backup><duration>576</duration></backup><attributes/><note><pitch><step>C</step><alter>1</alter><octave>3</octave></pitch><duration>192</duration><voice>3</voice><type>quarter</type><accidental>sharp</accidental><staff>2</staff></note><note><pitch><step>F</step><octave>3</octave></pitch><duration>192</duration><voice>3</voice><type>quarter</type><staff>2</staff></note><note><chord/><pitch><step>A</step><octave>3</octave></pitch><duration>192</duration><voice>3</voice><type>quarter</type><staff>2</staff></note><note><pitch><step>F</step><octave>3</octave></pitch><duration>192</duration><voice>3</voice><type>quarter</type><staff>2</staff></note><note><chord/><pitch><step>A</step><octave>3</octave></pitch><duration>192</duration><voice>3</voice><type>quarter</type><staff>2</staff></note></measure><measure number="3"><note><grace/><pitch><step>G</step><alter>1</alter><octave>4</octave></pitch><voice>1</voice><type>eighth</type><accidental>sharp</accidental><staff>1</staff></note><note><pitch><step>A</step><octave>4</octave></pitch><duration>192</duration><voice>1</voice><type>quarter</type><staff>1</staff></note><note><pitch><step>D</step><octave>5</octave></pitch><duration>192</duration><voice>1</voice><type>quarter</type><staff>1</staff><notations><articulations><staccato/></articulations></notations></note><note><pitch><step>A</step><octave>4</octave></pitch><duration>192</duration><voice>1</voice><type>quarter</type><staff>1</staff><notations><articulations><staccato/></articulations></notations></note><backup><duration>576</duration></backup><attributes/><note><pitch><step>C</step><octave>3</octave></pitch><duration>192</duration><voice>3</voice><type>quarter</type><staff>2</staff></note><note><pitch><step>F</step><octave>3</octave></pitch><duration>192</duration><voice>3</voice><type>quarter</type><staff>2</staff></note><note><chord/><pitch><step>A</step><octave>3</octave></pitch><duration>192</duration><voice>3</voice><type>quarter</type><staff>2</staff></note><note><pitch><step>F</step><octave>3</octave></pitch><duration>192</duration><voice>3</voice><type>quarter</type><staff>2</staff></note><note><chord/><pitch><step>A</step><octave>3</octave></pitch><duration>192</duration><voice>3</voice><type>quarter</type><staff>2</staff></note></measure><measure number="4"><note><pitch><step>B</step><octave>3</octave></pitch><duration>192</duration><voice>1</voice><type>quarter</type><accidental>natural</accidental><staff>1</staff><notations><arpeggiate/></notations></note><note><chord/><pitch><step>D</step><octave>4</octave></pitch><duration>192</duration><tie type="start"/><voice>1</voice><type>quarter</type><staff>1</staff><notations><arpeggiate/><tied type="start"/></notations></note><note><chord/><pitch><step>F</step><octave>4</octave></pitch><duration>192</duration><voice>1</voice><type>quarter</type><staff>1</staff><notations><arpeggiate/></notations></note><note><chord/><pitch><step>A</step><octave>4</octave></pitch><duration>192</duration><voice>1</voice><type>quarter</type><staff>1</staff><notations><arpeggiate/></notations></note><note><pitch><step>B</step><octave>3</octave></pitch><duration>192</duration><voice>1</voice><type>quarter</type><staff>1</staff></note><note><chord/><pitch><step>D</step><octave>4</octave></pitch><duration>192</duration><tie type="stop"/><voice>1</voice><type>quarter</type><staff>1</staff><notations><tied type="stop"/></notations></note><note><chord/><pitch><step>G</step><octave>4</octave></pitch><duration>192</duration><voice>1</voice><type>quarter</type><staff>1</staff></note><note><rest/><duration>192</duration><voice>1</voice><type>quarter</type><staff>1</staff></note><backup><duration>576</duration></backup><attributes/><note><pitch><step>B</step><octave>2</octave></pitch><duration>192</duration><voice>3</voice><type>quarter</type><accidental>natural</accidental><staff>2</staff></note><note><pitch><step>D</step><octave>3</octave></pitch><duration>192</duration><voice>3</voice><type>quarter</type><staff>2</staff></note><note><chord/><pitch><step>G</step><octave>3</octave></pitch><duration>192</duration><voice>3</voice><type>quarter</type><staff>2</staff></note><note><pitch><step>D</step><octave>3</octave></pitch><duration>192</duration><voice>3</voice><type>quarter</type><staff>2</staff></note><note><chord/><pitch><step>G</step><octave>3</octave></pitch><duration>192</duration><voice>3</voice><type>quarter</type><staff>2</staff></note></measure><measure number="5"><note><pitch><step>B</step><alter>-1</alter><octave>3</octave></pitch><duration>192</duration><voice>1</voice><type>quarter</type><staff>1</staff></note><note><chord/><pitch><step>D</step><octave>4</octave></pitch><duration>192</duration><voice>1</voice><type>quarter</type><staff>1</staff></note><note><chord/><pitch><step>G</step><octave>4</octave></pitch><duration>192</duration><voice>1</voice><type>quarter</type><staff>1</staff></note><note><pitch><step>B</step><alter>-1</alter><octave>4</octave></pitch><duration>192</duration><voice>1</voice><type>quarter</type><staff>1</staff></note><note><pitch><step>B</step><alter>-1</alter><octave>3</octave></pitch><duration>192</duration><voice>1</voice><type>quarter</type><staff>1</staff></note><note><chord/><pitch><step>D</step><octave>4</octave></pitch><duration>192</duration><voice>1</voice><type>quarter</type><staff>1</staff></note><note><chord/><pitch><step>A</step><octave>4</octave></pitch><duration>192</duration><voice>1</voice><type>quarter</type><staff>1</staff></note><backup><duration>576</duration></backup><attributes/><note><pitch><step>B</step><alter>-1</alter><octave>2</octave></pitch><duration>192</duration><voice>3</voice><type>quarter</type><staff>2</staff></note><note><pitch><step>D</step><octave>3</octave></pitch><duration>192</duration><voice>3</voice><type>quarter</type><staff>2</staff></note><note><chord/><pitch><step>G</step><octave>3</octave></pitch><duration>192</duration><voice>3</voice><type>quarter</type><staff>2</staff></note><note><pitch><step>D</step><octave>3</octave></pitch><duration>192</duration><voice>3</voice><type>quarter</type><staff>2</staff></note><note><chord/><pitch><step>G</step><octave>3</octave></pitch><duration>192</duration><voice>3</voice><type>quarter</type><staff>2</staff></note></measure><measure number="6"><note><pitch><step>A</step><octave>3</octave></pitch><duration>192</duration><voice>1</voice><type>quarter</type><staff>1</staff><notations><arpeggiate/><articulations><staccato/></articulations></notations></note><note><chord/><pitch><step>D</step><octave>4</octave></pitch><duration>192</duration><voice>1</voice><type>quarter</type><staff>1</staff><notations><arpeggiate/><articulations><staccato/></articulations></notations></note><note><chord/><pitch><step>G</step><octave>4</octave></pitch><duration>192</duration><voice>1</voice><type>quarter</type><staff>1</staff><notations><arpeggiate/><articulations><staccato/></articulations></notations></note><note><pitch><step>A</step><octave>3</octave></pitch><duration>384</duration><voice>1</voice><type>half</type><staff>1</staff></note><note><chord/><pitch><step>D</step><octave>4</octave></pitch><duration>384</duration><voice>1</voice><type>half</type><staff>1</staff></note><note><chord/><pitch><step>F</step><octave>4</octave></pitch><duration>384</duration><voice>1</voice><type>half</type><staff>1</staff></note><backup><duration>576</duration></backup><attributes/><note><pitch><step>A</step><octave>2</octave></pitch><duration>192</duration><voice>3</voice><type>quarter</type><staff>2</staff></note><note><pitch><step>D</step><octave>3</octave></pitch><duration>192</duration><voice>3</voice><type>quarter</type><staff>2</staff></note><note><chord/><pitch><step>F</step><octave>3</octave></pitch><duration>192</duration><voice>3</voice><type>quarter</type><staff>2</staff></note><note><pitch><step>D</step><octave>3</octave></pitch><duration>192</duration><voice>3</voice><type>quarter</type><staff>2</staff></note><note><chord/><pitch><step>F</step><octave>3</octave></pitch><duration>192</duration><voice>3</voice><type>quarter</type><staff>2</staff></note></measure><measure number="7"><note><pitch><step>G</step><alter>1</alter><octave>3</octave></pitch><duration>288</duration><voice>1</voice><type>quarter</type><dot/><accidental>sharp</accidental><staff>1</staff><notations><arpeggiate/></notations></note><note><chord/><pitch><step>B</step><octave>3</octave></pitch><duration>288</duration><voice>1</voice><type>quarter</type><dot/><accidental>natural</accidental><staff>1</staff><notations><arpeggiate/></notations></note><note><chord/><pitch><step>E</step><octave>4</octave></pitch><duration>288</duration><voice>1</voice><type>quarter</type><dot/><staff>1</staff><notations><arpeggiate/></notations></note><note><pitch><step>G</step><octave>4</octave></pitch><duration>96</duration><voice>1</voice><type>eighth</type><staff>1</staff></note><note><pitch><step>G</step><alter>1</alter><octave>3</octave></pitch><duration>192</duration><voice>1</voice><type>quarter</type><accidental>sharp</accidental><staff>1</staff></note><note><chord/><pitch><step>F</step><octave>4</octave></pitch><duration>192</duration><voice>1</voice><type>quarter</type><staff>1</staff></note><backup><duration>576</duration></backup><attributes/><note><pitch><step>G</step><alter>1</alter><octave>2</octave></pitch><duration>192</duration><voice>3</voice><type>quarter</type><accidental>sharp</accidental><staff>2</staff></note><note><pitch><step>D</step><octave>3</octave></pitch><duration>192</duration><voice>3</voice><type>quarter</type><staff>2</staff></note><note><chord/><pitch><step>F</step><octave>3</octave></pitch><duration>192</duration><voice>3</voice><type>quarter</type><staff>2</staff></note><note><pitch><step>D</step><octave>3</octave></pitch><duration>192</duration><voice>3</voice><type>quarter</type><staff>2</staff></note><note><chord/><pitch><step>F</step><octave>3</octave></pitch><duration>192</duration><voice>3</voice><type>quarter</type><staff>2</staff></note></measure><measure number="8"><note><pitch><step>G</step><octave>3</octave></pitch><duration>384</duration><voice>1</voice><type>half</type><staff>1</staff></note><note><chord/><pitch><step>C</step><alter>1</alter><octave>4</octave></pitch><duration>384</duration><voice>1</voice><type>half</type><accidental>sharp</accidental><staff>1</staff></note><note><chord/><pitch><step>E</step><octave>4</octave></pitch><duration>384</duration><voice>1</voice><type>half</type><staff>1</staff></note><note><pitch><step>G</step><octave>3</octave></pitch><duration>192</duration><voice>1</voice><type>quarter</type><staff>1</staff></note><note><chord/><pitch><step>C</step><alter>1</alter><octave>4</octave></pitch><duration>192</duration><voice>1</voice><type>quarter</type><staff>1</staff></note><backup><duration>576</duration></backup><attributes/><note><pitch><step>A</step><octave>2</octave></pitch><duration>192</duration><voice>3</voice><type>quarter</type><staff>2</staff></note><note><pitch><step>C</step><alter>1</alter><octave>3</octave></pitch><duration>192</duration><voice>3</voice><type>quarter</type><accidental>sharp</accidental><staff>2</staff></note><note><chord/><pitch><step>E</step><octave>3</octave></pitch><duration>192</duration><voice>3</voice><type>quarter</type><staff>2</staff></note><note><pitch><step>A</step><octave>2</octave></pitch><duration>192</duration><voice>3</voice><type>quarter</type><staff>2</staff></note></measure><measure number="9"><note><pitch><step>D</step><octave>4</octave></pitch><duration>288</duration><voice>1</voice><type>quarter</type><dot/><staff>1</staff></note><note><pitch><step>E</step><octave>4</octave></pitch><duration>96</duration><voice>1</voice><type>eighth</type><staff>1</staff></note><note><pitch><step>F</step><octave>4</octave></pitch><duration>96</duration><voice>1</voice><type>eighth</type><staff>1</staff><beam number="1">begin</beam></note><note><pitch><step>G</step><octave>4</octave></pitch><duration>96</duration><voice>1</voice><type>eighth</type><staff>1</staff><beam number="1">end</beam></note><backup><duration>576</duration></backup><attributes/><note><pitch><step>D</step><octave>3</octave></pitch><duration>192</duration><voice>3</voice><type>quarter</type><staff>2</staff></note><note><pitch><step>F</step><octave>3</octave></pitch><duration>192</duration><voice>3</voice><type>quarter</type><staff>2</staff></note><note><chord/><pitch><step>A</step><octave>3</octave></pitch><duration>192</duration><voice>3</voice><type>quarter</type><staff>2</staff></note><note><pitch><step>F</step><octave>3</octave></pitch><duration>192</duration><voice>3</voice><type>quarter</type><staff>2</staff></note><note><chord/><pitch><step>A</step><octave>3</octave></pitch><duration>192</duration><voice>3</voice><type>quarter</type><staff>2</staff></note></measure><measure number="10"><note><pitch><step>A</step><octave>4</octave></pitch><duration>384</duration><voice>1</voice><type>half</type><staff>1</staff></note><note><pitch><step>A</step><octave>4</octave></pitch><duration>192</duration><voice>1</voice><type>quarter</type><staff>1</staff></note><backup><duration>576</duration></backup><attributes/><note><pitch><step>C</step><alter>1</alter><octave>3</octave></pitch><duration>192</duration><voice>3</voice><type>quarter</type><accidental>sharp</accidental><staff>2</staff></note><note><pitch><step>F</step><octave>3</octave></pitch><duration>192</duration><voice>3</voice><type>quarter</type><staff>2</staff></note><note><chord/><pitch><step>A</step><octave>3</octave></pitch><duration>192</duration><voice>3</voice><type>quarter</type><staff>2</staff></note><note><pitch><step>F</step><octave>3</octave></pitch><duration>192</duration><voice>3</voice><type>quarter</type><staff>2</staff></note><note><chord/><pitch><step>A</step><octave>3</octave></pitch><duration>192</duration><voice>3</voice><type>quarter</type><staff>2</staff></note></measure><measure number="11"><note><grace/><pitch><step>G</step><alter>1</alter><octave>4</octave></pitch><voice>1</voice><type>eighth</type><accidental>sharp</accidental><staff>1</staff></note><note><pitch><step>A</step><octave>4</octave></pitch><duration>192</duration><voice>1</voice><type>quarter</type><staff>1</staff></note><note><pitch><step>D</step><octave>5</octave></pitch><duration>192</duration><voice>1</voice><type>quarter</type><staff>1</staff><notations><articulations><staccato/></articulations></notations></note><note><pitch><step>G</step><octave>4</octave></pitch><duration>192</duration><voice>1</voice><type>quarter</type><accidental>natural</accidental><staff>1</staff><notations><articulations><staccato/></articulations></notations></note><note><chord/><pitch><step>F</step><octave>5</octave></pitch><duration>192</duration><voice>1</voice><type>quarter</type><staff>1</staff><notations><articulations><staccato/></articulations></notations></note><backup><duration>576</duration></backup><attributes/><note><pitch><step>C</step><octave>3</octave></pitch><duration>192</duration><voice>3</voice><type>quarter</type><staff>2</staff></note><note><pitch><step>F</step><octave>3</octave></pitch><duration>192</duration><voice>3</voice><type>quarter</type><staff>2</staff></note><note><chord/><pitch><step>A</step><octave>3</octave></pitch><duration>192</duration><voice>3</voice><type>quarter</type><staff>2</staff></note><note><pitch><step>F</step><octave>3</octave></pitch><duration>192</duration><voice>3</voice><type>quarter</type><staff>2</staff></note><note><chord/><pitch><step>A</step><octave>3</octave></pitch><duration>192</duration><voice>3</voice><type>quarter</type><staff>2</staff></note></measure><measure number="12"><note><pitch><step>G</step><octave>4</octave></pitch><duration>192</duration><voice>1</voice><type>quarter</type><staff>1</staff></note><note><chord/><pitch><step>E</step><octave>5</octave></pitch><duration>192</duration><voice>1</voice><type>quarter</type><staff>1</staff></note><note><pitch><step>G</step><octave>4</octave></pitch><duration>192</duration><voice>1</voice><type>quarter</type><staff>1</staff></note><note><chord/><pitch><step>D</step><octave>5</octave></pitch><duration>192</duration><voice>1</voice><type>quarter</type><staff>1</staff></note><note><pitch><step>B</step><octave>3</octave></pitch><duration>192</duration><voice>1</voice><type>quarter</type><accidental>natural</accidental><staff>1</staff></note><note><chord/><pitch><step>A</step><octave>4</octave></pitch><duration>192</duration><voice>1</voice><type>quarter</type><staff>1</staff></note><backup><duration>576</duration></backup><attributes/><note><pitch><step>B</step><octave>2</octave></pitch><duration>192</duration><voice>3</voice><type>quarter</type><accidental>natural</accidental><staff>2</staff></note><note><pitch><step>D</step><octave>3</octave></pitch><duration>192</duration><voice>3</voice><type>quarter</type><staff>2</staff></note><note><chord/><pitch><step>G</step><octave>3</octave></pitch><duration>192</duration><voice>3</voice><type>quarter</type><staff>2</staff></note><note><pitch><step>D</step><octave>3</octave></pitch><duration>192</duration><voice>3</voice><type>quarter</type><staff>2</staff></note><note><chord/><pitch><step>G</step><octave>3</octave></pitch><duration>192</duration><voice>3</voice><type>quarter</type><staff>2</staff></note></measure><measure number="13"><note><pitch><step>B</step><alter>-1</alter><octave>3</octave></pitch><duration>192</duration><voice>1</voice><type>quarter</type><staff>1</staff></note><note><chord/><pitch><step>D</step><octave>4</octave></pitch><duration>192</duration><voice>1</voice><type>quarter</type><staff>1</staff></note><note><chord/><pitch><step>G</step><octave>4</octave></pitch><duration>192</duration><voice>1</voice><type>quarter</type><staff>1</staff></note><note><pitch><step>B</step><alter>-1</alter><octave>4</octave></pitch><duration>96</duration><voice>1</voice><type>eighth</type><staff>1</staff><beam number="1">begin</beam></note><note><pitch><step>D</step><octave>5</octave></pitch><duration>96</duration><voice>1</voice><type>eighth</type><staff>1</staff><beam number="1">end</beam></note><note><pitch><step>C</step><octave>5</octave></pitch><duration>96</duration><voice>1</voice><type>eighth</type><staff>1</staff><beam number="1">begin</beam></note><note><pitch><step>B</step><alter>-1</alter><octave>4</octave></pitch><duration>96</duration><voice>1</voice><type>eighth</type><staff>1</staff><beam number="1">end</beam></note><backup><duration>576</duration></backup><attributes/><note><pitch><step>B</step><alter>-1</alter><octave>2</octave></pitch><duration>192</duration><voice>3</voice><type>quarter</type><staff>2</staff></note><note><pitch><step>D</step><octave>3</octave></pitch><duration>192</duration><voice>3</voice><type>quarter</type><staff>2</staff></note><note><chord/><pitch><step>G</step><octave>3</octave></pitch><duration>192</duration><voice>3</voice><type>quarter</type><staff>2</staff></note><note><pitch><step>D</step><octave>3</octave></pitch><duration>192</duration><voice>3</voice><type>quarter</type><staff>2</staff></note><note><chord/><pitch><step>G</step><octave>3</octave></pitch><duration>192</duration><voice>3</voice><type>quarter</type><staff>2</staff></note></measure><measure number="14"><note><rest/><duration>576</duration><voice>1</voice><type>whole</type><staff>1</staff></note><backup><duration>576</duration></backup><attributes/><note><rest/><duration>576</duration><voice>3</voice><type>whole</type><staff>2</staff></note></measure><measure number="15"><print new-system="yes"/><note><rest/><duration>576</duration><voice>1</voice><type>whole</type><staff>1</staff></note><backup><duration>576</duration></backup><attributes/><note><rest/><duration>576</duration><voice>3</voice><type>whole</type><staff>2</staff></note></measure><measure number="16"><note><pitch><step>G</step><octave>3</octave></pitch><duration>384</duration><voice>1</voice><type>half</type><staff>1</staff></note><note><chord/><pitch><step>C</step><alter>1</alter><octave>4</octave></pitch><duration>384</duration><voice>1</voice><type>half</type><accidental>sharp</accidental><staff>1</staff></note><note><chord/><pitch><step>E</step><octave>4</octave></pitch><duration>384</duration><voice>1</voice><type>half</type><staff>1</staff></note><note><pitch><step>G</step><octave>3</octave></pitch><duration>192</duration><voice>1</voice><type>quarter</type><staff>1</staff></note><note><chord/><pitch><step>C</step><alter>1</alter><octave>4</octave></pitch><duration>192</duration><voice>1</voice><type>quarter</type><staff>1</staff></note><backup><duration>576</duration></backup><attributes/><note><pitch><step>A</step><octave>2</octave></pitch><duration>192</duration><voice>3</voice><type>quarter</type><staff>2</staff></note><note><pitch><step>C</step><alter>1</alter><octave>3</octave></pitch><duration>192</duration><voice>3</voice><type>quarter</type><accidental>sharp</accidental><staff>2</staff></note><note><chord/><pitch><step>E</step><octave>3</octave></pitch><duration>192</duration><voice>3</voice><type>quarter</type><staff>2</staff></note><note><pitch><step>A</step><octave>2</octave></pitch><duration>192</duration><voice>3</voice><type>quarter</type><staff>2</staff></note></measure><measure number="17"><note><pitch><step>D</step><octave>4</octave></pitch><duration>96</duration><voice>1</voice><type>eighth</type><staff>1</staff><beam number="1">begin</beam></note><note><pitch><step>F</step><octave>4</octave></pitch><duration>96</duration><voice>1</voice><type>eighth</type><staff>1</staff><beam number="1">end</beam></note><note><pitch><step>A</step><octave>4</octave></pitch><duration>96</duration><voice>1</voice><type>eighth</type><staff>1</staff><beam number="1">begin</beam></note><note><pitch><step>D</step><octave>5</octave></pitch><duration>96</duration><voice>1</voice><type>eighth</type><staff>1</staff><beam number="1">end</beam></note><note><pitch><step>A</step><octave>4</octave></pitch><duration>96</duration><voice>1</voice><type>eighth</type><staff>1</staff><beam number="1">begin</beam></note><note><pitch><step>F</step><octave>4</octave></pitch><duration>96</duration><voice>1</voice><type>eighth</type><staff>1</staff><beam number="1">end</beam></note><backup><duration>576</duration></backup><attributes/><note><pitch><step>D</step><octave>3</octave></pitch><duration>192</duration><voice>3</voice><type>quarter</type><staff>2</staff></note><note><pitch><step>F</step><octave>3</octave></pitch><duration>192</duration><voice>3</voice><type>quarter</type><staff>2</staff></note><note><chord/><pitch><step>A</step><octave>3</octave></pitch><duration>192</duration><voice>3</voice><type>quarter</type><staff>2</staff></note><note><pitch><step>F</step><octave>3</octave></pitch><duration>192</duration><voice>3</voice><type>quarter</type><staff>2</staff></note><note><chord/><pitch><step>A</step><octave>3</octave></pitch><duration>192</duration><voice>3</voice><type>quarter</type><staff>2</staff></note></measure><measure number="18"><note><pitch><step>C</step><alter>1</alter><octave>4</octave></pitch><duration>96</duration><voice>1</voice><type>eighth</type><accidental>sharp</accidental><staff>1</staff><beam number="1">begin</beam></note><note><pitch><step>F</step><octave>4</octave></pitch><duration>96</duration><voice>1</voice><type>eighth</type><staff>1</staff><beam number="1">end</beam></note><note><pitch><step>C</step><alter>1</alter><octave>5</octave></pitch><duration>96</duration><voice>1</voice><type>eighth</type><accidental>sharp</accidental><staff>1</staff></note><note><rest/><duration>96</duration><voice>1</voice><type>eighth</type><staff>1</staff></note><note><rest/><duration>192</duration><voice>1</voice><type>quarter</type><staff>1</staff></note><backup><duration>576</duration></backup><attributes/><note><pitch><step>C</step><alter>1</alter><octave>3</octave></pitch><duration>192</duration><voice>3</voice><type>quarter</type><accidental>sharp</accidental><staff>2</staff></note><note><pitch><step>F</step><octave>3</octave></pitch><duration>192</duration><voice>3</voice><type>quarter</type><staff>2</staff></note><note><chord/><pitch><step>A</step><octave>3</octave></pitch><duration>192</duration><voice>3</voice><type>quarter</type><staff>2</staff></note><note><pitch><step>F</step><octave>3</octave></pitch><duration>192</duration><voice>3</voice><type>quarter</type><staff>2</staff></note><note><chord/><pitch><step>A</step><octave>3</octave></pitch><duration>192</duration><voice>3</voice><type>quarter</type><staff>2</staff></note></measure><measure number="19"><note><pitch><step>C</step><octave>4</octave></pitch><duration>96</duration><voice>1</voice><type>eighth</type><staff>1</staff><beam number="1">begin</beam></note><note><pitch><step>F</step><octave>4</octave></pitch><duration>96</duration><voice>1</voice><type>eighth</type><staff>1</staff><beam number="1">end</beam></note><note><pitch><step>A</step><octave>4</octave></pitch><duration>96</duration><voice>1</voice><type>eighth</type><staff>1</staff><beam number="1">begin</beam></note><note><pitch><step>C</step><octave>5</octave></pitch><duration>96</duration><voice>1</voice><type>eighth</type><staff>1</staff><beam number="1">end</beam></note><note><pitch><step>A</step><octave>4</octave></pitch><duration>96</duration><voice>1</voice><type>eighth</type><staff>1</staff><beam number="1">begin</beam></note><note><pitch><step>F</step><octave>4</octave></pitch><duration>96</duration><voice>1</voice><type>eighth</type><staff>1</staff><beam number="1">end</beam></note><backup><duration>576</duration></backup><attributes/><note><pitch><step>C</step><octave>3</octave></pitch><duration>192</duration><voice>3</voice><type>quarter</type><staff>2</staff></note><note><pitch><step>F</step><octave>3</octave></pitch><duration>192</duration><voice>3</voice><type>quarter</type><staff>2</staff></note><note><chord/><pitch><step>A</step><octave>3</octave></pitch><duration>192</duration><voice>3</voice><type>quarter</type><staff>2</staff></note><note><pitch><step>F</step><octave>3</octave></pitch><duration>192</duration><voice>3</voice><type>quarter</type><staff>2</staff></note><note><chord/><pitch><step>A</step><octave>3</octave></pitch><duration>192</duration><voice>3</voice><type>quarter</type><staff>2</staff></note></measure><measure number="20"><note><pitch><step>B</step><octave>3</octave></pitch><duration>96</duration><voice>1</voice><type>eighth</type><accidental>natural</accidental><staff>1</staff><beam number="1">begin</beam></note><note><pitch><step>F</step><octave>4</octave></pitch><duration>96</duration><voice>1</voice><type>eighth</type><staff>1</staff><beam number="1">end</beam></note><note><pitch><step>B</step><octave>4</octave></pitch><duration>96</duration><voice>1</voice><type>eighth</type><accidental>natural</accidental><staff>1</staff></note><note><rest/><duration>96</duration><voice>1</voice><type>eighth</type><staff>1</staff></note><note><rest/><duration>192</duration><voice>1</voice><type>quarter</type><staff>1</staff></note><backup><duration>576</duration></backup><attributes/><note><pitch><step>B</step><octave>2</octave></pitch><duration>192</duration><voice>3</voice><type>quarter</type><accidental>natural</accidental><staff>2</staff></note><note><pitch><step>D</step><octave>3</octave></pitch><duration>192</duration><voice>3</voice><type>quarter</type><staff>2</staff></note><note><chord/><pitch><step>G</step><octave>3</octave></pitch><duration>192</duration><voice>3</voice><type>quarter</type><staff>2</staff></note><note><pitch><step>D</step><octave>3</octave></pitch><duration>192</duration><voice>3</voice><type>quarter</type><staff>2</staff></note><note><chord/><pitch><step>G</step><octave>3</octave></pitch><duration>192</duration><voice>3</voice><type>quarter</type><staff>2</staff></note></measure><measure number="21"><note><pitch><step>B</step><alter>-1</alter><octave>3</octave></pitch><duration>96</duration><voice>1</voice><type>eighth</type><staff>1</staff><beam number="1">begin</beam></note><note><pitch><step>D</step><octave>4</octave></pitch><duration>96</duration><voice>1</voice><type>eighth</type><staff>1</staff><beam number="1">end</beam></note><note><pitch><step>F</step><octave>4</octave></pitch><duration>96</duration><voice>1</voice><type>eighth</type><staff>1</staff><beam number="1">begin</beam></note><note><pitch><step>B</step><alter>-1</alter><octave>4</octave></pitch><duration>96</duration><voice>1</voice><type>eighth</type><staff>1</staff><beam number="1">end</beam></note><note><pitch><step>F</step><octave>4</octave></pitch><duration>96</duration><voice>1</voice><type>eighth</type><staff>1</staff><beam number="1">begin</beam></note><note><pitch><step>D</step><octave>4</octave></pitch><duration>96</duration><voice>1</voice><type>eighth</type><staff>1</staff><beam number="1">end</beam></note><backup><duration>576</duration></backup><attributes/><note><pitch><step>B</step><alter>-1</alter><octave>2</octave></pitch><duration>192</duration><voice>3</voice><type>quarter</type><staff>2</staff></note><note><pitch><step>D</step><octave>3</octave></pitch><duration>192</duration><voice>3</voice><type>quarter</type><staff>2</staff></note><note><chord/><pitch><step>G</step><octave>3</octave></pitch><duration>192</duration><voice>3</voice><type>quarter</type><staff>2</staff></note><note><pitch><step>D</step><octave>3</octave></pitch><duration>192</duration><voice>3</voice><type>quarter</type><staff>2</staff></note><note><chord/><pitch><step>G</step><octave>3</octave></pitch><duration>192</duration><voice>3</voice><type>quarter</type><staff>2</staff></note></measure><measure number="22"><note><pitch><step>A</step><octave>3</octave></pitch><duration>96</duration><voice>1</voice><type>eighth</type><staff>1</staff><beam number="1">begin</beam></note><note><pitch><step>D</step><octave>4</octave></pitch><duration>96</duration><voice>1</voice><type>eighth</type><staff>1</staff><beam number="1">end</beam></note><note><pitch><step>F</step><octave>4</octave></pitch><duration>96</duration><voice>1</voice><type>eighth</type><staff>1</staff><beam number="1">begin</beam></note><note><pitch><step>A</step><octave>4</octave></pitch><duration>96</duration><voice>1</voice><type>eighth</type><staff>1</staff><beam number="1">end</beam></note><note><pitch><step>F</step><octave>4</octave></pitch><duration>96</duration><voice>1</voice><type>eighth</type><staff>1</staff><beam number="1">begin</beam></note><note><pitch><step>D</step><octave>4</octave></pitch><duration>96</duration><voice>1</voice><type>eighth</type><staff>1</staff><beam number="1">end</beam></note><backup><duration>576</duration></backup><attributes/><note><pitch><step>A</step><octave>2</octave></pitch><duration>192</duration><voice>3</voice><type>quarter</type><staff>2</staff></note><note><pitch><step>D</step><octave>3</octave></pitch><duration>192</duration><voice>3</voice><type>quarter</type><staff>2</staff></note><note><chord/><pitch><step>F</step><octave>3</octave></pitch><duration>192</duration><voice>3</voice><type>quarter</type><staff>2</staff></note><note><pitch><step>D</step><octave>3</octave></pitch><duration>192</duration><voice>3</voice><type>quarter</type><staff>2</staff></note><note><chord/><pitch><step>F</step><octave>3</octave></pitch><duration>192</duration><voice>3</voice><type>quarter</type><staff>2</staff></note></measure><measure number="23"><note><pitch><step>G</step><alter>1</alter><octave>3</octave></pitch><duration>96</duration><voice>1</voice><type>eighth</type><accidental>sharp</accidental><staff>1</staff><beam number="1">begin</beam></note><note><pitch><step>D</step><octave>4</octave></pitch><duration>96</duration><voice>1</voice><type>eighth</type><staff>1</staff><beam number="1">end</beam></note><note><pitch><step>F</step><octave>4</octave></pitch><duration>96</duration><voice>1</voice><type>eighth</type><staff>1</staff><beam number="1">begin</beam></note><note><pitch><step>G</step><alter>1</alter><octave>4</octave></pitch><duration>96</duration><voice>1</voice><type>eighth</type><accidental>sharp</accidental><staff>1</staff><beam number="1">end</beam></note><note><pitch><step>F</step><octave>4</octave></pitch><duration>96</duration><voice>1</voice><type>eighth</type><staff>1</staff><beam number="1">begin</beam></note><note><pitch><step>D</step><octave>4</octave></pitch><duration>96</duration><voice>1</voice><type>eighth</type><staff>1</staff><beam number="1">end</beam></note><backup><duration>576</duration></backup><attributes/><note><pitch><step>G</step><alter>1</alter><octave>2</octave></pitch><duration>192</duration><voice>3</voice><type>quarter</type><accidental>sharp</accidental><staff>2</staff></note><note><pitch><step>D</step><octave>3</octave></pitch><duration>192</duration><voice>3</voice><type>quarter</type><staff>2</staff></note><note><chord/><pitch><step>F</step><octave>3</octave></pitch><duration>192</duration><voice>3</voice><type>quarter</type><staff>2</staff></note><note><pitch><step>D</step><octave>3</octave></pitch><duration>192</duration><voice>3</voice><type>quarter</type><staff>2</staff></note><note><chord/><pitch><step>F</step><octave>3</octave></pitch><duration>192</duration><voice>3</voice><type>quarter</type><staff>2</staff></note></measure><measure number="24"><note><pitch><step>A</step><octave>3</octave></pitch><duration>96</duration><voice>1</voice><type>eighth</type><staff>1</staff><beam number="1">begin</beam></note><note><pitch><step>D</step><octave>4</octave></pitch><duration>96</duration><voice>1</voice><type>eighth</type><staff>1</staff><beam number="1">end</beam></note><note><pitch><step>F</step><octave>4</octave></pitch><duration>96</duration><voice>1</voice><type>eighth</type><staff>1</staff><beam number="1">begin</beam></note><note><pitch><step>A</step><octave>4</octave></pitch><duration>96</duration><voice>1</voice><type>eighth</type><staff>1</staff><beam number="1">end</beam></note><note><pitch><step>C</step><alter>1</alter><octave>4</octave></pitch><duration>96</duration><voice>1</voice><type>eighth</type><accidental>sharp</accidental><staff>1</staff><beam number="1">begin</beam></note><note><pitch><step>E</step><octave>4</octave></pitch><duration>96</duration><voice>1</voice><type>eighth</type><staff>1</staff><beam number="1">end</beam></note><backup><duration>576</duration></backup><attributes/><note><pitch><step>A</step><octave>2</octave></pitch><duration>192</duration><voice>3</voice><type>quarter</type><staff>2</staff></note><note><pitch><step>F</step><octave>3</octave></pitch><duration>192</duration><voice>3</voice><type>quarter</type><staff>2</staff></note><note><chord/><pitch><step>A</step><octave>3</octave></pitch><duration>192</duration><voice>3</voice><type>quarter</type><staff>2</staff></note><note><pitch><step>E</step><octave>3</octave></pitch><duration>192</duration><voice>3</voice><type>quarter</type><staff>2</staff></note><note><chord/><pitch><step>A</step><octave>3</octave></pitch><duration>192</duration><voice>3</voice><type>quarter</type><staff>2</staff></note></measure><measure number="25"><note><pitch><step>D</step><octave>4</octave></pitch><duration>96</duration><voice>1</voice><type>eighth</type><duration>64</duration><time-modification><actual-notes>3</actual-notes><normal-notes>2</normal-notes><normal-type>quarter</normal-type></time-modification><staff>1</staff><beam number="1">begin</beam><notations><tuplet type="start" number="1"><tuplet-actual><tuplet-number>3</tuplet-number><tuplet-type>eighth</tuplet-type></tuplet-actual><tuplet-normal><tuplet-number>1</tuplet-number><tuplet-type>quarter</tuplet-type></tuplet-normal></tuplet></notations></note><note><pitch><step>F</step><octave>4</octave></pitch><duration>96</duration><voice>1</voice><type>eighth</type><duration>64</duration><time-modification><actual-notes>3</actual-notes><normal-notes>2</normal-notes><normal-type>quarter</normal-type></time-modification><staff>1</staff><beam number="1">continue</beam></note><note><pitch><step>A</step><octave>4</octave></pitch><duration>96</duration><voice>1</voice><type>eighth</type><duration>64</duration><time-modification><actual-notes>3</actual-notes><normal-notes>2</normal-notes><normal-type>quarter</normal-type></time-modification><staff>1</staff><beam number="1">end</beam><notations><tuplet type="stop" number="1"/></notations></note><note><pitch><step>D</step><octave>5</octave></pitch><duration>96</duration><voice>1</voice><type>eighth</type><duration>64</duration><time-modification><actual-notes>3</actual-notes><normal-notes>2</normal-notes><normal-type>quarter</normal-type></time-modification><staff>1</staff><beam number="1">begin</beam><notations><tuplet type="start" number="1"><tuplet-actual><tuplet-number>3</tuplet-number><tuplet-type>eighth</tuplet-type></tuplet-actual><tuplet-normal><tuplet-number>1</tuplet-number><tuplet-type>quarter</tuplet-type></tuplet-normal></tuplet></notations></note><note><pitch><step>F</step><octave>5</octave></pitch><duration>96</duration><voice>1</voice><type>eighth</type><duration>64</duration><time-modification><actual-notes>3</actual-notes><normal-notes>2</normal-notes><normal-type>quarter</normal-type></time-modification><staff>1</staff><beam number="1">continue</beam></note><note><pitch><step>A</step><octave>5</octave></pitch><duration>96</duration><voice>1</voice><type>eighth</type><duration>64</duration><time-modification><actual-notes>3</actual-notes><normal-notes>2</normal-notes><normal-type>quarter</normal-type></time-modification><staff>1</staff><beam number="1">end</beam><notations><tuplet type="stop" number="1"/></notations></note><note><pitch><step>D</step><octave>6</octave></pitch><duration>96</duration><voice>1</voice><type>eighth</type><duration>64</duration><time-modification><actual-notes>3</actual-notes><normal-notes>2</normal-notes><normal-type>quarter</normal-type></time-modification><staff>1</staff><beam number="1">begin</beam><notations><tuplet type="start" number="1"><tuplet-actual><tuplet-number>3</tuplet-number><tuplet-type>eighth</tuplet-type></tuplet-actual><tuplet-normal><tuplet-number>1</tuplet-number><tuplet-type>quarter</tuplet-type></tuplet-normal></tuplet></notations></note><note><pitch><step>A</step><octave>5</octave></pitch><duration>96</duration><voice>1</voice><type>eighth</type><duration>64</duration><time-modification><actual-notes>3</actual-notes><normal-notes>2</normal-notes><normal-type>quarter</normal-type></time-modification><staff>1</staff><beam number="1">continue</beam></note><note><pitch><step>D</step><octave>5</octave></pitch><duration>96</duration><voice>1</voice><type>eighth</type><duration>64</duration><time-modification><actual-notes>3</actual-notes><normal-notes>2</normal-notes><normal-type>quarter</normal-type></time-modification><staff>1</staff><beam number="1">end</beam><notations><tuplet type="stop" number="1"/></notations></note><backup><duration>576</duration></backup><attributes/><note><pitch><step>D</step><octave>3</octave></pitch><duration>192</duration><voice>3</voice><type>quarter</type><staff>2</staff></note><note><pitch><step>F</step><octave>3</octave></pitch><duration>192</duration><voice>3</voice><type>quarter</type><staff>2</staff></note><note><chord/><pitch><step>A</step><octave>3</octave></pitch><duration>192</duration><voice>3</voice><type>quarter</type><staff>2</staff></note><note><pitch><step>F</step><octave>3</octave></pitch><duration>192</duration><voice>3</voice><type>quarter</type><staff>2</staff></note><note><chord/><pitch><step>A</step><octave>3</octave></pitch><duration>192</duration><voice>3</voice><type>quarter</type><staff>2</staff></note></measure><measure number="26"><note><pitch><step>C</step><alter>1</alter><octave>4</octave></pitch><duration>96</duration><voice>1</voice><type>eighth</type><accidental>sharp</accidental><duration>64</duration><time-modification><actual-notes>3</actual-notes><normal-notes>2</normal-notes><normal-type>quarter</normal-type></time-modification><staff>1</staff><beam number="1">begin</beam><notations><tuplet type="start" number="1"><tuplet-actual><tuplet-number>3</tuplet-number><tuplet-type>eighth</tuplet-type></tuplet-actual><tuplet-normal><tuplet-number>1</tuplet-number><tuplet-type>quarter</tuplet-type></tuplet-normal></tuplet></notations></note><note><pitch><step>F</step><octave>4</octave></pitch><duration>96</duration><voice>1</voice><type>eighth</type><duration>64</duration><time-modification><actual-notes>3</actual-notes><normal-notes>2</normal-notes><normal-type>quarter</normal-type></time-modification><staff>1</staff><beam number="1">continue</beam></note><note><pitch><step>A</step><octave>4</octave></pitch><duration>96</duration><voice>1</voice><type>eighth</type><duration>64</duration><time-modification><actual-notes>3</actual-notes><normal-notes>2</normal-notes><normal-type>quarter</normal-type></time-modification><staff>1</staff><beam number="1">end</beam><notations><tuplet type="stop" number="1"/></notations></note><note><pitch><step>C</step><alter>1</alter><octave>5</octave></pitch><duration>96</duration><voice>1</voice><type>eighth</type><accidental>sharp</accidental><duration>64</duration><time-modification><actual-notes>3</actual-notes><normal-notes>2</normal-notes><normal-type>quarter</normal-type></time-modification><staff>1</staff><notations><tuplet type="start" number="1"><tuplet-actual><tuplet-number>3</tuplet-number><tuplet-type>eighth</tuplet-type></tuplet-actual><tuplet-normal><tuplet-number>1</tuplet-number><tuplet-type>quarter</tuplet-type></tuplet-normal></tuplet></notations></note><note><pitch><step>C</step><alter>1</alter><octave>5</octave></pitch><duration>96</duration><voice>1</voice><type>eighth</type><duration>43</duration><time-modification><actual-notes>9</actual-notes><normal-notes>4</normal-notes><normal-type>quarter</normal-type></time-modification><staff>1</staff><beam number="1">begin</beam><notations><tuplet type="start" number="2"><tuplet-actual><tuplet-number>3</tuplet-number><tuplet-type>eighth</tuplet-type></tuplet-actual><tuplet-normal><tuplet-number>1</tuplet-number><tuplet-type>quarter</tuplet-type></tuplet-normal></tuplet></notations></note><note><pitch><step>F</step><octave>5</octave></pitch><duration>96</duration><voice>1</voice><type>eighth</type><duration>43</duration><time-modification><actual-notes>9</actual-notes><normal-notes>4</normal-notes><normal-type>quarter</normal-type></time-modification><staff>1</staff><beam number="1">continue</beam></note><note><pitch><step>A</step><octave>5</octave></pitch><duration>96</duration><voice>1</voice><type>eighth</type><duration>43</duration><time-modification><actual-notes>9</actual-notes><normal-notes>4</normal-notes><normal-type>quarter</normal-type></time-modification><staff>1</staff><beam number="1">end</beam><notations><tuplet type="stop" number="0"/><tuplet type="stop" number="1"/></notations></note><note><pitch><step>C</step><alter>1</alter><octave>6</octave></pitch><duration>96</duration><voice>1</voice><type>eighth</type><accidental>sharp</accidental><duration>64</duration><time-modification><actual-notes>3</actual-notes><normal-notes>2</normal-notes><normal-type>quarter</normal-type></time-modification><staff>1</staff><beam number="1">begin</beam><notations><tuplet type="start" number="1"><tuplet-actual><tuplet-number>3</tuplet-number><tuplet-type>eighth</tuplet-type></tuplet-actual><tuplet-normal><tuplet-number>1</tuplet-number><tuplet-type>quarter</tuplet-type></tuplet-normal></tuplet></notations></note><note><pitch><step>A</step><octave>5</octave></pitch><duration>96</duration><voice>1</voice><type>eighth</type><duration>64</duration><time-modification><actual-notes>3</actual-notes><normal-notes>2</normal-notes><normal-type>quarter</normal-type></time-modification><staff>1</staff><beam number="1">continue</beam></note><note><pitch><step>F</step><octave>5</octave></pitch><duration>96</duration><voice>1</voice><type>eighth</type><duration>64</duration><time-modification><actual-notes>3</actual-notes><normal-notes>2</normal-notes><normal-type>quarter</normal-type></time-modification><staff>1</staff><beam number="1">end</beam><notations><tuplet type="stop" number="1"/></notations></note><backup><duration>576</duration></backup><attributes/><note><pitch><step>C</step><alter>1</alter><octave>3</octave></pitch><duration>192</duration><voice>3</voice><type>quarter</type><accidental>sharp</accidental><staff>2</staff></note><note><pitch><step>F</step><octave>3</octave></pitch><duration>192</duration><voice>3</voice><type>quarter</type><staff>2</staff></note><note><chord/><pitch><step>A</step><octave>3</octave></pitch><duration>192</duration><voice>3</voice><type>quarter</type><staff>2</staff></note><note><pitch><step>F</step><octave>3</octave></pitch><duration>192</duration><voice>3</voice><type>quarter</type><staff>2</staff></note><note><chord/><pitch><step>A</step><octave>3</octave></pitch><duration>192</duration><voice>3</voice><type>quarter</type><staff>2</staff></note></measure><measure number="27"><note><grace/><pitch><step>C</step><octave>5</octave></pitch><voice>1</voice><type>eighth</type><duration>0</duration><time-modification><actual-notes>3</actual-notes><normal-notes>2</normal-notes><normal-type>quarter</normal-type></time-modification><staff>1</staff><beam number="1">begin</beam><notations><tuplet type="start" number="1"><tuplet-actual><tuplet-number>3</tuplet-number><tuplet-type>eighth</tuplet-type></tuplet-actual><tuplet-normal><tuplet-number>1</tuplet-number><tuplet-type>quarter</tuplet-type></tuplet-normal></tuplet></notations></note><note><pitch><step>C</step><octave>4</octave></pitch><duration>96</duration><voice>1</voice><type>eighth</type><duration>64</duration><time-modification><actual-notes>3</actual-notes><normal-notes>2</normal-notes><normal-type>quarter</normal-type></time-modification><staff>1</staff><beam number="1">begin</beam></note><note><pitch><step>F</step><octave>4</octave></pitch><duration>96</duration><voice>1</voice><type>eighth</type><duration>64</duration><time-modification><actual-notes>3</actual-notes><normal-notes>2</normal-notes><normal-type>quarter</normal-type></time-modification><staff>1</staff><beam number="1">continue</beam></note><note><pitch><step>A</step><octave>4</octave></pitch><duration>96</duration><voice>1</voice><type>eighth</type><duration>64</duration><time-modification><actual-notes>3</actual-notes><normal-notes>2</normal-notes><normal-type>quarter</normal-type></time-modification><staff>1</staff><beam number="1">end</beam><notations><tuplet type="stop" number="1"/></notations></note><note><pitch><step>C</step><octave>5</octave></pitch><duration>96</duration><voice>1</voice><type>eighth</type><duration>64</duration><time-modification><actual-notes>3</actual-notes><normal-notes>2</normal-notes><normal-type>quarter</normal-type></time-modification><staff>1</staff><beam number="1">begin</beam><notations><tuplet type="start" number="1"><tuplet-actual><tuplet-number>3</tuplet-number><tuplet-type>eighth</tuplet-type></tuplet-actual><tuplet-normal><tuplet-number>1</tuplet-number><tuplet-type>quarter</tuplet-type></tuplet-normal></tuplet></notations></note><note><pitch><step>F</step><octave>5</octave></pitch><duration>96</duration><voice>1</voice><type>eighth</type><duration>64</duration><time-modification><actual-notes>3</actual-notes><normal-notes>2</normal-notes><normal-type>quarter</normal-type></time-modification><staff>1</staff><beam number="1">continue</beam></note><note><pitch><step>A</step><octave>5</octave></pitch><duration>96</duration><voice>1</voice><type>eighth</type><duration>64</duration><time-modification><actual-notes>3</actual-notes><normal-notes>2</normal-notes><normal-type>quarter</normal-type></time-modification><staff>1</staff><beam number="1">end</beam><notations><tuplet type="stop" number="1"/></notations></note><note><pitch><step>C</step><octave>6</octave></pitch><duration>96</duration><voice>1</voice><type>eighth</type><duration>64</duration><time-modification><actual-notes>3</actual-notes><normal-notes>2</normal-notes><normal-type>quarter</normal-type></time-modification><staff>1</staff><beam number="1">begin</beam><notations><tuplet type="start" number="1"><tuplet-actual><tuplet-number>3</tuplet-number><tuplet-type>eighth</tuplet-type></tuplet-actual><tuplet-normal><tuplet-number>1</tuplet-number><tuplet-type>quarter</tuplet-type></tuplet-normal></tuplet></notations></note><note><pitch><step>A</step><octave>5</octave></pitch><duration>96</duration><voice>1</voice><type>eighth</type><duration>64</duration><time-modification><actual-notes>3</actual-notes><normal-notes>2</normal-notes><normal-type>quarter</normal-type></time-modification><staff>1</staff><beam number="1">continue</beam></note><note><pitch><step>F</step><octave>5</octave></pitch><duration>96</duration><voice>1</voice><type>eighth</type><duration>64</duration><time-modification><actual-notes>3</actual-notes><normal-notes>2</normal-notes><normal-type>quarter</normal-type></time-modification><staff>1</staff><beam number="1">end</beam><notations><tuplet type="stop" number="1"/></notations></note><backup><duration>576</duration></backup><attributes/><note><pitch><step>C</step><octave>3</octave></pitch><duration>192</duration><voice>3</voice><type>quarter</type><staff>2</staff></note><note><pitch><step>F</step><octave>3</octave></pitch><duration>192</duration><voice>3</voice><type>quarter</type><staff>2</staff></note><note><chord/><pitch><step>A</step><octave>3</octave></pitch><duration>192</duration><voice>3</voice><type>quarter</type><staff>2</staff></note><note><pitch><step>F</step><octave>3</octave></pitch><duration>192</duration><voice>3</voice><type>quarter</type><staff>2</staff></note><note><chord/><pitch><step>A</step><octave>3</octave></pitch><duration>192</duration><voice>3</voice><type>quarter</type><staff>2</staff></note></measure><measure number="28"><note><pitch><step>B</step><octave>3</octave></pitch><duration>96</duration><voice>1</voice><type>eighth</type><accidental>natural</accidental><duration>64</duration><time-modification><actual-notes>3</actual-notes><normal-notes>2</normal-notes><normal-type>quarter</normal-type></time-modification><staff>1</staff><beam number="1">begin</beam><notations><tuplet type="start" number="1"><tuplet-actual><tuplet-number>3</tuplet-number><tuplet-type>eighth</tuplet-type></tuplet-actual><tuplet-normal><tuplet-number>1</tuplet-number><tuplet-type>quarter</tuplet-type></tuplet-normal></tuplet></notations></note><note><pitch><step>D</step><octave>4</octave></pitch><duration>96</duration><voice>1</voice><type>eighth</type><duration>64</duration><time-modification><actual-notes>3</actual-notes><normal-notes>2</normal-notes><normal-type>quarter</normal-type></time-modification><staff>1</staff><beam number="1">continue</beam></note><note><pitch><step>G</step><octave>4</octave></pitch><duration>96</duration><voice>1</voice><type>eighth</type><duration>64</duration><time-modification><actual-notes>3</actual-notes><normal-notes>2</normal-notes><normal-type>quarter</normal-type></time-modification><staff>1</staff><beam number="1">end</beam><notations><tuplet type="stop" number="1"/></notations></note><note><pitch><step>B</step><octave>4</octave></pitch><duration>96</duration><voice>1</voice><type>eighth</type><accidental>natural</accidental><duration>64</duration><time-modification><actual-notes>3</actual-notes><normal-notes>2</normal-notes><normal-type>quarter</normal-type></time-modification><staff>1</staff><beam number="1">begin</beam><notations><tuplet type="start" number="1"><tuplet-actual><tuplet-number>3</tuplet-number><tuplet-type>eighth</tuplet-type></tuplet-actual><tuplet-normal><tuplet-number>1</tuplet-number><tuplet-type>quarter</tuplet-type></tuplet-normal></tuplet></notations></note><note><pitch><step>D</step><octave>5</octave></pitch><duration>96</duration><voice>1</voice><type>eighth</type><duration>64</duration><time-modification><actual-notes>3</actual-notes><normal-notes>2</normal-notes><normal-type>quarter</normal-type></time-modification><staff>1</staff><beam number="1">continue</beam></note><note><pitch><step>F</step><octave>5</octave></pitch><duration>96</duration><voice>1</voice><type>eighth</type><duration>64</duration><time-modification><actual-notes>3</actual-notes><normal-notes>2</normal-notes><normal-type>quarter</normal-type></time-modification><staff>1</staff><beam number="1">end</beam><notations><tuplet type="stop" number="1"/></notations></note><note><pitch><step>B</step><octave>5</octave></pitch><duration>96</duration><voice>1</voice><type>eighth</type><accidental>natural</accidental><duration>64</duration><time-modification><actual-notes>3</actual-notes><normal-notes>2</normal-notes><normal-type>quarter</normal-type></time-modification><staff>1</staff><beam number="1">begin</beam><notations><tuplet type="start" number="1"><tuplet-actual><tuplet-number>3</tuplet-number><tuplet-type>eighth</tuplet-type></tuplet-actual><tuplet-normal><tuplet-number>1</tuplet-number><tuplet-type>quarter</tuplet-type></tuplet-normal></tuplet></notations></note><note><pitch><step>A</step><octave>5</octave></pitch><duration>96</duration><voice>1</voice><type>eighth</type><duration>64</duration><time-modification><actual-notes>3</actual-notes><normal-notes>2</normal-notes><normal-type>quarter</normal-type></time-modification><staff>1</staff><beam number="1">continue</beam></note><note><pitch><step>G</step><octave>5</octave></pitch><duration>96</duration><voice>1</voice><type>eighth</type><duration>64</duration><time-modification><actual-notes>3</actual-notes><normal-notes>2</normal-notes><normal-type>quarter</normal-type></time-modification><staff>1</staff><beam number="1">end</beam><notations><tuplet type="stop" number="1"/></notations></note><backup><duration>576</duration></backup><attributes/><note><pitch><step>B</step><octave>2</octave></pitch><duration>192</duration><voice>3</voice><type>quarter</type><accidental>natural</accidental><staff>2</staff></note><note><pitch><step>D</step><octave>3</octave></pitch><duration>192</duration><voice>3</voice><type>quarter</type><staff>2</staff></note><note><chord/><pitch><step>G</step><octave>3</octave></pitch><duration>192</duration><voice>3</voice><type>quarter</type><staff>2</staff></note><note><pitch><step>D</step><octave>3</octave></pitch><duration>192</duration><voice>3</voice><type>quarter</type><staff>2</staff></note><note><chord/><pitch><step>G</step><octave>3</octave></pitch><duration>192</duration><voice>3</voice><type>quarter</type><staff>2</staff></note></measure><measure number="29"><note><pitch><step>B</step><alter>-1</alter><octave>3</octave></pitch><duration>96</duration><voice>1</voice><type>eighth</type><duration>64</duration><time-modification><actual-notes>3</actual-notes><normal-notes>2</normal-notes><normal-type>quarter</normal-type></time-modification><staff>1</staff><beam number="1">begin</beam><notations><tuplet type="start" number="1"><tuplet-actual><tuplet-number>3</tuplet-number><tuplet-type>eighth</tuplet-type></tuplet-actual><tuplet-normal><tuplet-number>1</tuplet-number><tuplet-type>quarter</tuplet-type></tuplet-normal></tuplet></notations></note><note><pitch><step>D</step><octave>4</octave></pitch><duration>96</duration><voice>1</voice><type>eighth</type><duration>64</duration><time-modification><actual-notes>3</actual-notes><normal-notes>2</normal-notes><normal-type>quarter</normal-type></time-modification><staff>1</staff><beam number="1">continue</beam></note><note><pitch><step>F</step><octave>4</octave></pitch><duration>96</duration><voice>1</voice><type>eighth</type><duration>64</duration><time-modification><actual-notes>3</actual-notes><normal-notes>2</normal-notes><normal-type>quarter</normal-type></time-modification><staff>1</staff><beam number="1">end</beam><notations><tuplet type="stop" number="1"/></notations></note><note><pitch><step>G</step><octave>4</octave></pitch><duration>96</duration><voice>1</voice><type>eighth</type><duration>64</duration><time-modification><actual-notes>3</actual-notes><normal-notes>2</normal-notes><normal-type>quarter</normal-type></time-modification><staff>1</staff><beam number="1">begin</beam><notations><tuplet type="start" number="1"><tuplet-actual><tuplet-number>3</tuplet-number><tuplet-type>eighth</tuplet-type></tuplet-actual><tuplet-normal><tuplet-number>1</tuplet-number><tuplet-type>quarter</tuplet-type></tuplet-normal></tuplet></notations></note><note><pitch><step>A</step><octave>4</octave></pitch><duration>96</duration><voice>1</voice><type>eighth</type><duration>64</duration><time-modification><actual-notes>3</actual-notes><normal-notes>2</normal-notes><normal-type>quarter</normal-type></time-modification><staff>1</staff><beam number="1">continue</beam></note><note><pitch><step>B</step><alter>-1</alter><octave>4</octave></pitch><duration>96</duration><voice>1</voice><type>eighth</type><duration>64</duration><time-modification><actual-notes>3</actual-notes><normal-notes>2</normal-notes><normal-type>quarter</normal-type></time-modification><staff>1</staff><beam number="1">end</beam><notations><tuplet type="stop" number="1"/></notations></note><note><pitch><step>D</step><octave>5</octave></pitch><duration>96</duration><voice>1</voice><type>eighth</type><duration>64</duration><time-modification><actual-notes>3</actual-notes><normal-notes>2</normal-notes><normal-type>quarter</normal-type></time-modification><staff>1</staff><beam number="1">begin</beam><notations><tuplet type="start" number="1"><tuplet-actual><tuplet-number>3</tuplet-number><tuplet-type>eighth</tuplet-type></tuplet-actual><tuplet-normal><tuplet-number>1</tuplet-number><tuplet-type>quarter</tuplet-type></tuplet-normal></tuplet></notations></note><note><pitch><step>F</step><octave>5</octave></pitch><duration>96</duration><voice>1</voice><type>eighth</type><duration>64</duration><time-modification><actual-notes>3</actual-notes><normal-notes>2</normal-notes><normal-type>quarter</normal-type></time-modification><staff>1</staff><beam number="1">continue</beam></note><note><pitch><step>B</step><alter>-1</alter><octave>5</octave></pitch><duration>96</duration><voice>1</voice><type>eighth</type><duration>64</duration><time-modification><actual-notes>3</actual-notes><normal-notes>2</normal-notes><normal-type>quarter</normal-type></time-modification><staff>1</staff><beam number="1">end</beam><notations><tuplet type="stop" number="1"/></notations></note><backup><duration>576</duration></backup><attributes/><note><pitch><step>B</step><alter>-1</alter><octave>2</octave></pitch><duration>192</duration><voice>3</voice><type>quarter</type><staff>2</staff></note><note><pitch><step>D</step><octave>3</octave></pitch><duration>192</duration><voice>3</voice><type>quarter</type><staff>2</staff></note><note><chord/><pitch><step>G</step><octave>3</octave></pitch><duration>192</duration><voice>3</voice><type>quarter</type><staff>2</staff></note><note><pitch><step>D</step><octave>3</octave></pitch><duration>192</duration><voice>3</voice><type>quarter</type><staff>2</staff></note><note><chord/><pitch><step>G</step><octave>3</octave></pitch><duration>192</duration><voice>3</voice><type>quarter</type><staff>2</staff></note></measure><measure number="30"><note><pitch><step>A</step><octave>5</octave></pitch><duration>96</duration><voice>1</voice><type>eighth</type><duration>64</duration><time-modification><actual-notes>3</actual-notes><normal-notes>2</normal-notes><normal-type>quarter</normal-type></time-modification><staff>1</staff><beam number="1">begin</beam><notations><tuplet type="start" number="1"><tuplet-actual><tuplet-number>3</tuplet-number><tuplet-type>eighth</tuplet-type></tuplet-actual><tuplet-normal><tuplet-number>1</tuplet-number><tuplet-type>quarter</tuplet-type></tuplet-normal></tuplet></notations></note><note><pitch><step>B</step><alter>-1</alter><octave>5</octave></pitch><duration>96</duration><voice>1</voice><type>eighth</type><duration>64</duration><time-modification><actual-notes>3</actual-notes><normal-notes>2</normal-notes><normal-type>quarter</normal-type></time-modification><staff>1</staff><beam number="1">continue</beam></note><note><pitch><step>A</step><octave>5</octave></pitch><duration>96</duration><voice>1</voice><type>eighth</type><duration>64</duration><time-modification><actual-notes>3</actual-notes><normal-notes>2</normal-notes><normal-type>quarter</normal-type></time-modification><staff>1</staff><beam number="1">end</beam><notations><tuplet type="stop" number="1"/></notations></note><note><pitch><step>D</step><octave>6</octave></pitch><duration>96</duration><voice>1</voice><type>eighth</type><duration>64</duration><time-modification><actual-notes>3</actual-notes><normal-notes>2</normal-notes><normal-type>quarter</normal-type></time-modification><staff>1</staff><beam number="1">begin</beam><notations><tuplet type="start" number="1"><tuplet-actual><tuplet-number>3</tuplet-number><tuplet-type>eighth</tuplet-type></tuplet-actual><tuplet-normal><tuplet-number>1</tuplet-number><tuplet-type>quarter</tuplet-type></tuplet-normal></tuplet></notations></note><note><pitch><step>E</step><octave>6</octave></pitch><duration>96</duration><voice>1</voice><type>eighth</type><duration>64</duration><time-modification><actual-notes>3</actual-notes><normal-notes>2</normal-notes><normal-type>quarter</normal-type></time-modification><staff>1</staff><beam number="1">continue</beam></note><note><pitch><step>F</step><octave>6</octave></pitch><duration>96</duration><voice>1</voice><type>eighth</type><duration>64</duration><time-modification><actual-notes>3</actual-notes><normal-notes>2</normal-notes><normal-type>quarter</normal-type></time-modification><staff>1</staff><beam number="1">end</beam><notations><tuplet type="stop" number="1"/></notations></note><note><pitch><step>E</step><octave>6</octave></pitch><duration>96</duration><voice>1</voice><type>eighth</type><duration>64</duration><time-modification><actual-notes>3</actual-notes><normal-notes>2</normal-notes><normal-type>quarter</normal-type></time-modification><staff>1</staff><notations><tuplet type="start" number="1"><tuplet-actual><tuplet-number>3</tuplet-number><tuplet-type>eighth</tuplet-type></tuplet-actual><tuplet-normal><tuplet-number>1</tuplet-number><tuplet-type>quarter</tuplet-type></tuplet-normal></tuplet></notations></note><note><pitch><step>E</step><octave>6</octave></pitch><duration>48</duration><voice>1</voice><type>16th</type><duration>21</duration><time-modification><actual-notes>9</actual-notes><normal-notes>4</normal-notes><normal-type>eighth</normal-type></time-modification><staff>1</staff><beam number="1">begin</beam><notations><tuplet type="start" number="2"><tuplet-actual><tuplet-number>3</tuplet-number><tuplet-type>16th</tuplet-type></tuplet-actual><tuplet-normal><tuplet-number>1</tuplet-number><tuplet-type>eighth</tuplet-type></tuplet-normal></tuplet></notations></note><note><pitch><step>F</step><octave>6</octave></pitch><duration>48</duration><voice>1</voice><type>16th</type><duration>21</duration><time-modification><actual-notes>9</actual-notes><normal-notes>4</normal-notes><normal-type>eighth</normal-type></time-modification><staff>1</staff><beam number="1">continue</beam></note><note><pitch><step>E</step><octave>6</octave></pitch><duration>48</duration><voice>1</voice><type>16th</type><duration>21</duration><time-modification><actual-notes>9</actual-notes><normal-notes>4</normal-notes><normal-type>eighth</normal-type></time-modification><staff>1</staff><beam number="1">end</beam><notations><tuplet type="stop" number="2"/></notations></note><note><pitch><step>D</step><octave>6</octave></pitch><duration>96</duration><voice>1</voice><type>eighth</type><duration>64</duration><time-modification><actual-notes>3</actual-notes><normal-notes>2</normal-notes><normal-type>quarter</normal-type></time-modification><staff>1</staff><notations><tuplet type="stop" number="1"/></notations></note><backup><duration>576</duration></backup><attributes/><note><pitch><step>A</step><octave>2</octave></pitch><duration>192</duration><voice>3</voice><type>quarter</type><staff>2</staff></note><note><pitch><step>A</step><octave>3</octave></pitch><duration>192</duration><voice>3</voice><type>quarter</type><staff>2</staff></note><note><chord/><pitch><step>D</step><octave>4</octave></pitch><duration>192</duration><voice>3</voice><type>quarter</type><staff>2</staff></note><note><chord/><pitch><step>F</step><octave>4</octave></pitch><duration>192</duration><voice>3</voice><type>quarter</type><staff>2</staff></note><note><pitch><step>A</step><octave>3</octave></pitch><duration>192</duration><voice>3</voice><type>quarter</type><staff>2</staff></note><note><chord/><pitch><step>D</step><octave>4</octave></pitch><duration>192</duration><voice>3</voice><type>quarter</type><staff>2</staff></note><note><chord/><pitch><step>F</step><octave>4</octave></pitch><duration>192</duration><voice>3</voice><type>quarter</type><staff>2</staff></note></measure><measure number="31"><note><pitch><step>D</step><octave>6</octave></pitch><duration>96</duration><voice>1</voice><type>eighth</type><duration>64</duration><time-modification><actual-notes>3</actual-notes><normal-notes>2</normal-notes><normal-type>quarter</normal-type></time-modification><staff>1</staff><beam number="1">begin</beam><notations><tuplet type="start" number="1"><tuplet-actual><tuplet-number>3</tuplet-number><tuplet-type>eighth</tuplet-type></tuplet-actual><tuplet-normal><tuplet-number>1</tuplet-number><tuplet-type>quarter</tuplet-type></tuplet-normal></tuplet></notations></note><note><pitch><step>D</step><alter>-1</alter><octave>6</octave></pitch><duration>96</duration><voice>1</voice><type>eighth</type><accidental>flat</accidental><duration>64</duration><time-modification><actual-notes>3</actual-notes><normal-notes>2</normal-notes><normal-type>quarter</normal-type></time-modification><staff>1</staff><beam number="1">continue</beam></note><note><pitch><step>C</step><octave>6</octave></pitch><duration>96</duration><voice>1</voice><type>eighth</type><duration>64</duration><time-modification><actual-notes>3</actual-notes><normal-notes>2</normal-notes><normal-type>quarter</normal-type></time-modification><staff>1</staff><beam number="1">end</beam><notations><tuplet type="stop" number="1"/></notations></note><note><pitch><step>B</step><octave>5</octave></pitch><duration>96</duration><voice>1</voice><type>eighth</type><accidental>natural</accidental><duration>64</duration><time-modification><actual-notes>3</actual-notes><normal-notes>2</normal-notes><normal-type>quarter</normal-type></time-modification><staff>1</staff><beam number="1">begin</beam><notations><tuplet type="start" number="1"><tuplet-actual><tuplet-number>3</tuplet-number><tuplet-type>eighth</tuplet-type></tuplet-actual><tuplet-normal><tuplet-number>1</tuplet-number><tuplet-type>quarter</tuplet-type></tuplet-normal></tuplet></notations></note><note><pitch><step>B</step><alter>-1</alter><octave>5</octave></pitch><duration>96</duration><voice>1</voice><type>eighth</type><accidental>flat</accidental><duration>64</duration><time-modification><actual-notes>3</actual-notes><normal-notes>2</normal-notes><normal-type>quarter</normal-type></time-modification><staff>1</staff><beam number="1">continue</beam></note><note><pitch><step>A</step><octave>5</octave></pitch><duration>96</duration><voice>1</voice><type>eighth</type><duration>64</duration><time-modification><actual-notes>3</actual-notes><normal-notes>2</normal-notes><normal-type>quarter</normal-type></time-modification><staff>1</staff><beam number="1">end</beam><notations><tuplet type="stop" number="1"/></notations></note><note><pitch><step>A</step><alter>-1</alter><octave>5</octave></pitch><duration>96</duration><voice>1</voice><type>eighth</type><accidental>flat</accidental><duration>64</duration><time-modification><actual-notes>3</actual-notes><normal-notes>2</normal-notes><normal-type>quarter</normal-type></time-modification><staff>1</staff><beam number="1">begin</beam><notations><tuplet type="start" number="1"><tuplet-actual><tuplet-number>3</tuplet-number><tuplet-type>eighth</tuplet-type></tuplet-actual><tuplet-normal><tuplet-number>1</tuplet-number><tuplet-type>quarter</tuplet-type></tuplet-normal></tuplet></notations></note><note><pitch><step>G</step><octave>5</octave></pitch><duration>96</duration><voice>1</voice><type>eighth</type><duration>64</duration><time-modification><actual-notes>3</actual-notes><normal-notes>2</normal-notes><normal-type>quarter</normal-type></time-modification><staff>1</staff><beam number="1">continue</beam></note><note><pitch><step>F</step><alter>1</alter><octave>5</octave></pitch><duration>96</duration><voice>1</voice><type>eighth</type><accidental>sharp</accidental><duration>64</duration><time-modification><actual-notes>3</actual-notes><normal-notes>2</normal-notes><normal-type>quarter</normal-type></time-modification><staff>1</staff><beam number="1">end</beam><notations><tuplet type="stop" number="1"/></notations></note><backup><duration>576</duration></backup><attributes/><note><pitch><step>G</step><alter>1</alter><octave>2</octave></pitch><duration>192</duration><voice>3</voice><type>quarter</type><accidental>sharp</accidental><staff>2</staff></note><note><pitch><step>D</step><octave>3</octave></pitch><duration>192</duration><voice>3</voice><type>quarter</type><staff>2</staff></note><note><chord/><pitch><step>F</step><octave>3</octave></pitch><duration>192</duration><voice>3</voice><type>quarter</type><staff>2</staff></note><note><pitch><step>D</step><octave>3</octave></pitch><duration>192</duration><voice>3</voice><type>quarter</type><staff>2</staff></note><note><chord/><pitch><step>F</step><octave>3</octave></pitch><duration>192</duration><voice>3</voice><type>quarter</type><staff>2</staff></note></measure><measure number="32"><note><pitch><step>F</step><octave>5</octave></pitch><duration>96</duration><voice>1</voice><type>eighth</type><duration>64</duration><time-modification><actual-notes>3</actual-notes><normal-notes>2</normal-notes><normal-type>quarter</normal-type></time-modification><staff>1</staff><beam number="1">begin</beam><notations><tuplet type="start" number="1"><tuplet-actual><tuplet-number>3</tuplet-number><tuplet-type>eighth</tuplet-type></tuplet-actual><tuplet-normal><tuplet-number>1</tuplet-number><tuplet-type>quarter</tuplet-type></tuplet-normal></tuplet></notations></note><note><pitch><step>E</step><octave>5</octave></pitch><duration>96</duration><voice>1</voice><type>eighth</type><duration>64</duration><time-modification><actual-notes>3</actual-notes><normal-notes>2</normal-notes><normal-type>quarter</normal-type></time-modification><staff>1</staff><beam number="1">continue</beam></note><note><pitch><step>E</step><alter>-1</alter><octave>5</octave></pitch><duration>96</duration><voice>1</voice><type>eighth</type><accidental>flat</accidental><duration>64</duration><time-modification><actual-notes>3</actual-notes><normal-notes>2</normal-notes><normal-type>quarter</normal-type></time-modification><staff>1</staff><beam number="1">end</beam><notations><tuplet type="stop" number="1"/></notations></note><note><pitch><step>D</step><octave>5</octave></pitch><duration>96</duration><voice>1</voice><type>eighth</type><duration>64</duration><time-modification><actual-notes>3</actual-notes><normal-notes>2</normal-notes><normal-type>quarter</normal-type></time-modification><staff>1</staff><beam number="1">begin</beam><notations><tuplet type="start" number="1"><tuplet-actual><tuplet-number>3</tuplet-number><tuplet-type>eighth</tuplet-type></tuplet-actual><tuplet-normal><tuplet-number>1</tuplet-number><tuplet-type>quarter</tuplet-type></tuplet-normal></tuplet></notations></note><note><pitch><step>D</step><alter>-1</alter><octave>5</octave></pitch><duration>96</duration><voice>1</voice><type>eighth</type><accidental>flat</accidental><duration>64</duration><time-modification><actual-notes>3</actual-notes><normal-notes>2</normal-notes><normal-type>quarter</normal-type></time-modification><staff>1</staff><beam number="1">continue</beam></note><note><pitch><step>C</step><octave>5</octave></pitch><duration>96</duration><voice>1</voice><type>eighth</type><duration>64</duration><time-modification><actual-notes>3</actual-notes><normal-notes>2</normal-notes><normal-type>quarter</normal-type></time-modification><staff>1</staff><beam number="1">end</beam><notations><tuplet type="stop" number="1"/></notations></note><note><pitch><step>B</step><octave>4</octave></pitch><duration>96</duration><voice>1</voice><type>eighth</type><accidental>natural</accidental><duration>64</duration><time-modification><actual-notes>3</actual-notes><normal-notes>2</normal-notes><normal-type>quarter</normal-type></time-modification><staff>1</staff><beam number="1">begin</beam><notations><tuplet type="start" number="1"><tuplet-actual><tuplet-number>3</tuplet-number><tuplet-type>eighth</tuplet-type></tuplet-actual><tuplet-normal><tuplet-number>1</tuplet-number><tuplet-type>quarter</tuplet-type></tuplet-normal></tuplet></notations></note><note><pitch><step>B</step><alter>-1</alter><octave>4</octave></pitch><duration>96</duration><voice>1</voice><type>eighth</type><accidental>flat</accidental><duration>64</duration><time-modification><actual-notes>3</actual-notes><normal-notes>2</normal-notes><normal-type>quarter</normal-type></time-modification><staff>1</staff><beam number="1">continue</beam></note><note><pitch><step>A</step><octave>4</octave></pitch><duration>96</duration><voice>1</voice><type>eighth</type><duration>64</duration><time-modification><actual-notes>3</actual-notes><normal-notes>2</normal-notes><normal-type>quarter</normal-type></time-modification><staff>1</staff><beam number="1">end</beam><notations><tuplet type="stop" number="1"/></notations></note><backup><duration>576</duration></backup><attributes/><note><pitch><step>A</step><octave>2</octave></pitch><duration>192</duration><voice>3</voice><type>quarter</type><staff>2</staff></note><note><pitch><step>F</step><octave>3</octave></pitch><duration>192</duration><voice>3</voice><type>quarter</type><staff>2</staff></note><note><chord/><pitch><step>A</step><octave>3</octave></pitch><duration>192</duration><voice>3</voice><type>quarter</type><staff>2</staff></note><note><pitch><step>E</step><octave>3</octave></pitch><duration>192</duration><tie type="start"/><voice>3</voice><type>quarter</type><duration>128</duration><time-modification><actual-notes>3</actual-notes><normal-notes>2</normal-notes><normal-type>quarter</normal-type></time-modification><staff>2</staff><notations><tuplet type="start" number="1"><tuplet-actual><tuplet-number>3</tuplet-number><tuplet-type>eighth</tuplet-type></tuplet-actual><tuplet-normal><tuplet-number>1</tuplet-number><tuplet-type>quarter</tuplet-type></tuplet-normal></tuplet><tied type="start"/></notations></note><note><chord/><pitch><step>A</step><octave>3</octave></pitch><duration>192</duration><tie type="start"/><voice>3</voice><type>quarter</type><duration>128</duration><time-modification><actual-notes>3</actual-notes><normal-notes>2</normal-notes><normal-type>quarter</normal-type></time-modification><staff>2</staff><notations><tied type="start"/></notations></note><note><pitch><step>E</step><octave>3</octave></pitch><duration>96</duration><tie type="stop"/><voice>3</voice><type>eighth</type><duration>64</duration><time-modification><actual-notes>3</actual-notes><normal-notes>2</normal-notes><normal-type>quarter</normal-type></time-modification><staff>2</staff><notations><tuplet type="stop" number="1"/><tied type="stop"/></notations></note><note><chord/><pitch><step>A</step><octave>3</octave></pitch><duration>96</duration><tie type="stop"/><voice>3</voice><type>eighth</type><duration>64</duration><time-modification><actual-notes>3</actual-notes><normal-notes>2</normal-notes><normal-type>quarter</normal-type></time-modification><staff>2</staff><notations><tied type="stop"/></notations></note></measure><measure number="33"><note><pitch><step>D</step><octave>4</octave></pitch><duration>192</duration><voice>1</voice><type>quarter</type><staff>1</staff></note><note><rest/><duration>192</duration><voice>1</voice><type>quarter</type><staff>1</staff></note><note><rest/><duration>192</duration><voice>1</voice><type>quarter</type><staff>1</staff></note><backup><duration>576</duration></backup><attributes/><note><pitch><step>D</step><octave>3</octave></pitch><duration>192</duration><voice>3</voice><type>quarter</type><staff>2</staff></note><note><rest/><duration>192</duration><voice>3</voice><type>quarter</type><staff>2</staff></note><note><rest/><duration>192</duration><voice>3</voice><type>quarter</type><staff>2</staff></note><barline location="right"><bar-style>light-heavy</bar-style></barline></measure></part></score-partwise>